<?xml version="1.0"?>
<svg xmlns="http://www.w3.org/2000/svg" xmlns:xlink="http://www.w3.org/1999/xlink" xmlns:svgjs="http://svgjs.com/svgjs" version="1.1" width="512" height="512" x="0" y="0" viewBox="0 0 64 64" style="enable-background:new 0 0 512 512" xml:space="preserve" class=""><g><g xmlns="http://www.w3.org/2000/svg" id="Administrator-Smartphone-Cloud-Office-Internet"><path d="m28 25h2v2h-2z" fill="#ffffff" data-original="#000000" style="" class=""/><path d="m34 25h2v2h-2z" fill="#ffffff" data-original="#000000" style="" class=""/><path d="m61 52h-14v-7.13a7.011 7.011 0 0 0 -2.417-5.286l.015-.091a3 3 0 0 0 -2.959-3.493h-4.223l-1.416-.644v-1.449a7.969 7.969 0 0 0 3.75-4.941c.084.007.165.034.25.034a2.992 2.992 0 0 0 .376-5.962l1.331-1.331a1 1 0 0 0 .293-.707v-3a5.006 5.006 0 0 0 -5-5h-16a1 1 0 0 0 -.895 1.447l1.777 3.553-.777 1.553a1 1 0 0 0 .188 1.154l2.331 2.331a2.992 2.992 0 0 0 .376 5.962c.085 0 .167-.027.252-.035a8 8 0 0 0 2.091 3.693 7.862 7.862 0 0 0 1.657 1.235v1.463l-1.416.644h-4.223a3 3 0 0 0 -2.961 3.493l.015.091a7.011 7.011 0 0 0 -2.415 5.286v7.13h-14a1 1 0 0 0 -1 1v4a1 1 0 0 0 1 1h2v3a1 1 0 0 0 1 1h52a1 1 0 0 0 1-1v-3h2a1 1 0 0 0 1-1v-4a1 1 0 0 0 -1-1zm-16-7.13v7.13h-2.184a2.966 2.966 0 0 0 .184-1v-1.917l1.164-6.983a5.027 5.027 0 0 1 .836 2.77zm-22 6.13v-1h18v1a1 1 0 0 1 -1 1h-16a1 1 0 0 1 -1-1zm18-25a1 1 0 0 1 -1 1v-2a1 1 0 0 1 1 1zm-17.1-8.447-1.282-2.553h14.382a3 3 0 0 1 3 3v2.586l-1.414 1.414h-.145a1 1 0 0 1 -.948-.684l-.544-1.632a1 1 0 0 0 -1.549-.484l-1.867 1.4a7.04 7.04 0 0 1 -4.2 1.4h-3.919l-2.2-2.2.678-1.356a1 1 0 0 0 .008-.891zm-.9 8.447a1 1 0 0 1 1-1v2a1 1 0 0 1 -1-1zm3.031 1.58a4.614 4.614 0 0 1 -.031-.58v-3h3.333a9.052 9.052 0 0 0 5.4-1.8l.757-.568.1.317a3 3 0 0 0 2.41 2.016v3.035a4.6 4.6 0 0 1 -.036.614 6 6 0 0 1 -8.542 4.8 5.833 5.833 0 0 1 -1.665-1.17 5.991 5.991 0 0 1 -1.726-3.664zm3.969 7.158a7.765 7.765 0 0 0 4 0v1.262h-4zm-8.4 3.616a.982.982 0 0 1 .761-.354h19.278a1 1 0 0 1 .986 1.164l-1.472 8.836h-18.306l-1.472-8.836a.985.985 0 0 1 .225-.81zm-2.6 6.516a5.027 5.027 0 0 1 .836-2.771l1.164 6.984v1.917a2.966 2.966 0 0 0 .184 1h-2.184zm38 15.13h-50v-2h50zm3-4h-56v-2h56z" fill="#ffffff" data-original="#000000" style="" class=""/><path d="m32 46a3 3 0 1 0 -3-3 3 3 0 0 0 3 3zm0-4a1 1 0 1 1 -1 1 1 1 0 0 1 1-1z" fill="#ffffff" data-original="#000000" style="" class=""/><path d="m46 16h12a4 4 0 0 0 0-8h-.1a4.85 4.85 0 0 0 .1-1 5 5 0 0 0 -9.587-1.971 3 3 0 0 0 -3.413 2.971q0 .063 0 .126a4 4 0 0 0 1 7.874zm0-6h.277a1 1 0 0 0 .864-1.5.983.983 0 0 1 -.141-.5 1.017 1.017 0 0 1 1.532-.841 1 1 0 0 0 1.522-.673 2.995 2.995 0 0 1 5.946.514 2.946 2.946 0 0 1 -.419 1.5 1 1 0 0 0 .864 1.5h1.555a2 2 0 0 1 0 4h-12a2 2 0 0 1 0-4z" fill="#ffffff" data-original="#000000" style="" class=""/><path d="m7 24h6a5.006 5.006 0 0 0 5-5v-12a5.006 5.006 0 0 0 -5-5h-6a5.006 5.006 0 0 0 -5 5v12a5.006 5.006 0 0 0 5 5zm-3-17a3 3 0 0 1 3-3h6a3 3 0 0 1 3 3v12a3 3 0 0 1 -3 3h-6a3 3 0 0 1 -3-3z" fill="#ffffff" data-original="#000000" style="" class=""/><path d="m8 6h4v2h-4z" fill="#ffffff" data-original="#000000" style="" class=""/><path d="m9 18h2v2h-2z" fill="#ffffff" data-original="#000000" style="" class=""/><path d="m7 10h6v2h-6z" fill="#ffffff" data-original="#000000" style="" class=""/><path d="m7 14h6v2h-6z" fill="#ffffff" data-original="#000000" style="" class=""/><path d="m54 37h2v2h-2z" fill="#ffffff" data-original="#000000" style="" class=""/><path d="m58.536 34.464a5.008 5.008 0 0 0 -7.072 0l1.414 1.414a3.006 3.006 0 0 1 4.244 0z" fill="#ffffff" data-original="#000000" style="" class=""/><path d="m61.364 31.636a9 9 0 0 0 -12.728 0l1.414 1.414a7 7 0 0 1 9.9 0z" fill="#ffffff" data-original="#000000" style="" class=""/><path d="m49 44v2h3a1 1 0 0 0 .707-.293l3-3-1.414-1.414-2.707 2.707z" fill="#ffffff" data-original="#000000" style="" class=""/><path d="m9 26v4a1 1 0 0 0 .293.707l7 7 1.414-1.414-6.707-6.707v-3.586z" fill="#ffffff" data-original="#000000" style="" class=""/><path d="m53 23v-5h-2v4h-6v2h7a1 1 0 0 0 1-1z" fill="#ffffff" data-original="#000000" style="" class=""/></g></g></svg>
